<svg width="266" height="233" viewBox="0 0 266 233" fill="none" xmlns="http://www.w3.org/2000/svg">
<rect width="266" height="233" fill="#E5E5E5"/>
<g clip-path="url(#clip0_601_9)">
<path fill-rule="evenodd" clip-rule="evenodd" d="M171.774 215.399H83.721C90.7492 206.143 96.576 182.294 94.0519 163.895H160.824C158.3 182.294 164.75 206.143 171.774 215.399Z" fill="#CAD0D7"/>
<path fill-rule="evenodd" clip-rule="evenodd" d="M68.029 212.217H187.466C193.607 212.217 198.631 216.893 198.631 222.608C198.631 228.324 193.607 233 187.466 233H68.029C61.8881 233 56.8645 228.324 56.8645 222.608C56.864 216.893 61.8881 212.217 68.029 212.217Z" fill="#CD791E"/>
<path fill-rule="evenodd" clip-rule="evenodd" d="M242.019 0C249.459 0 255.492 5.61569 255.492 12.5433V153.58C255.492 163.009 247.281 170.652 237.15 170.652H18.3417C8.21141 170.652 0 163.009 0 153.58V17.072C0 7.64299 8.21141 0 18.3417 0H242.019Z" fill="#CAD0D7"/>
<path fill-rule="evenodd" clip-rule="evenodd" d="M10.6455 126.785H244.847V12.5433C244.847 12.1973 244.775 11.8546 244.633 11.5349C244.491 11.2151 244.283 10.9246 244.02 10.6798C243.757 10.4351 243.445 10.241 243.102 10.1086C242.758 9.9763 242.39 9.90831 242.019 9.90857H18.3417C14.0872 9.90807 10.6455 13.112 10.6455 17.072V126.785Z" fill="#1EA9CD"/>
<path fill-rule="evenodd" clip-rule="evenodd" d="M255.492 136.693V153.58C255.492 163.009 247.281 170.652 237.15 170.652H18.3417C8.21141 170.652 0 163.009 0 153.58V136.693H255.492Z" fill="#CD791E"/>
<path fill-rule="evenodd" clip-rule="evenodd" d="M117.662 157.694C116.516 157.694 115.417 157.27 114.607 156.516C113.797 155.762 113.342 154.739 113.342 153.672C113.342 152.606 113.797 151.583 114.607 150.829C115.417 150.075 116.516 149.651 117.662 149.651H137.829C138.975 149.651 140.074 150.075 140.884 150.829C141.695 151.583 142.15 152.606 142.15 153.672C142.15 154.739 141.695 155.762 140.884 156.516C140.074 157.27 138.975 157.694 137.829 157.694H117.662Z" fill="#CAD0D7"/>
<path d="M216.245 188.006C243.724 181.908 260.689 156.23 254.137 130.653C247.586 105.076 219.999 89.2852 192.519 95.3832C165.04 101.481 148.075 127.159 154.626 152.736C161.178 178.313 188.765 194.104 216.245 188.006Z" fill="#FDCD56"/>
<path fill-rule="evenodd" clip-rule="evenodd" d="M187.51 105.082C190.405 105.082 192.942 106.494 194.702 108.776C196.213 110.734 197.147 113.368 197.147 116.213C197.147 119.058 196.213 121.692 194.702 123.65C192.942 125.932 190.405 127.344 187.51 127.344C184.615 127.344 182.078 125.932 180.318 123.65C178.808 121.692 177.874 119.058 177.874 116.213C177.874 113.368 178.808 110.734 180.318 108.776C182.079 106.494 184.615 105.082 187.51 105.082ZM221.173 156.057C224.069 156.057 226.605 157.469 228.365 159.751C229.875 161.709 230.809 164.343 230.809 167.188C230.809 170.033 229.875 172.667 228.365 174.625C226.605 176.907 224.068 178.319 221.173 178.319C218.278 178.319 215.741 176.907 213.98 174.625C212.47 172.667 211.536 170.033 211.536 167.188C211.536 164.343 212.47 161.709 213.98 159.751C215.741 157.469 218.277 156.057 221.173 156.057ZM222.339 163.788C221.961 163.298 221.541 162.994 221.173 162.994C220.804 162.994 220.384 163.298 220.006 163.788C219.377 164.604 218.988 165.802 218.988 167.189C218.988 168.575 219.377 169.773 220.006 170.589C220.384 171.08 220.803 171.383 221.173 171.383C221.541 171.383 221.96 171.08 222.339 170.589C222.968 169.773 223.358 168.575 223.358 167.189C223.358 165.801 222.968 164.603 222.339 163.788ZM200.616 159.525C200.616 158.606 201.008 157.723 201.707 157.073C202.406 156.423 203.353 156.057 204.341 156.057C205.33 156.057 206.277 156.423 206.976 157.073C207.675 157.723 208.067 158.606 208.067 159.525V174.851C208.067 175.771 207.675 176.653 206.976 177.303C206.277 177.954 205.33 178.319 204.341 178.319C203.353 178.319 202.406 177.954 201.707 177.303C201.008 176.653 200.616 175.771 200.616 174.851V159.525ZM187.51 156.057C190.406 156.057 192.942 157.469 194.702 159.751C196.213 161.709 197.147 164.343 197.147 167.188C197.147 170.033 196.213 172.667 194.702 174.625C192.942 176.907 190.405 178.319 187.51 178.319C184.615 178.319 182.079 176.907 180.318 174.625C178.808 172.667 177.874 170.033 177.874 167.188C177.874 164.343 178.808 161.709 180.318 159.751C182.079 157.469 184.615 156.057 187.51 156.057ZM188.677 163.788C188.298 163.298 187.879 162.994 187.51 162.994C187.142 162.994 186.722 163.298 186.344 163.788C185.714 164.604 185.325 165.802 185.325 167.189C185.325 168.575 185.714 169.773 186.344 170.589C186.722 171.08 187.141 171.383 187.51 171.383C187.879 171.383 188.298 171.08 188.677 170.589C189.306 169.773 189.695 168.575 189.695 167.189C189.695 165.801 189.306 164.603 188.677 163.788ZM238.005 130.643C240.9 130.643 243.437 132.055 245.197 134.337C246.707 136.295 247.641 138.928 247.641 141.774C247.641 144.619 246.707 147.253 245.197 149.21C243.437 151.493 240.9 152.904 238.005 152.904C235.11 152.904 232.573 151.493 230.813 149.21C229.303 147.253 228.368 144.619 228.368 141.774C228.368 138.928 229.303 136.295 230.813 134.337C232.572 132.054 235.109 130.643 238.005 130.643ZM239.171 138.373C238.792 137.882 238.374 137.579 238.005 137.579C237.636 137.579 237.216 137.882 236.838 138.373C236.209 139.188 235.82 140.386 235.82 141.774C235.82 143.16 236.209 144.358 236.838 145.174C237.217 145.665 237.635 145.968 238.005 145.968C238.374 145.968 238.792 145.665 239.171 145.174C239.8 144.358 240.19 143.16 240.19 141.774C240.189 140.387 239.8 139.189 239.171 138.373ZM170.679 130.643C173.574 130.643 176.111 132.054 177.871 134.337C179.381 136.295 180.316 138.928 180.316 141.774C180.316 144.619 179.381 147.253 177.871 149.211C176.111 151.493 173.574 152.905 170.679 152.905C167.784 152.905 165.247 151.493 163.487 149.211C161.977 147.253 161.043 144.619 161.043 141.774C161.043 138.929 161.977 136.295 163.487 134.337C165.247 132.054 167.784 130.643 170.679 130.643ZM171.846 138.373C171.467 137.882 171.048 137.579 170.679 137.579C170.31 137.579 169.891 137.882 169.512 138.373C168.883 139.188 168.494 140.386 168.494 141.774C168.494 143.16 168.883 144.358 169.512 145.174C169.891 145.665 170.309 145.968 170.679 145.968C171.048 145.968 171.467 145.665 171.846 145.174C172.475 144.358 172.864 143.16 172.864 141.774C172.864 140.387 172.475 139.189 171.846 138.373ZM217.447 134.111C217.447 133.191 217.839 132.309 218.538 131.659C219.237 131.008 220.184 130.643 221.173 130.643C222.161 130.643 223.108 131.008 223.807 131.659C224.506 132.309 224.898 133.191 224.898 134.111V149.436C224.898 150.356 224.506 151.238 223.807 151.889C223.108 152.539 222.161 152.904 221.173 152.904C220.184 152.904 219.237 152.539 218.538 151.889C217.839 151.238 217.447 150.356 217.447 149.436V134.111ZM183.784 134.111C183.784 133.191 184.177 132.309 184.876 131.659C185.575 131.008 186.522 130.643 187.51 130.643C188.499 130.643 189.446 131.008 190.145 131.659C190.844 132.309 191.236 133.191 191.236 134.111V149.436C191.236 150.356 190.844 151.238 190.145 151.889C189.446 152.539 188.499 152.904 187.51 152.904C186.522 152.904 185.575 152.539 184.876 151.889C184.177 151.238 183.784 150.356 183.784 149.436V134.111ZM204.342 130.569C207.237 130.569 209.774 131.981 211.534 134.263C213.044 136.221 213.978 138.855 213.978 141.7C213.978 144.546 213.044 147.179 211.534 149.137C209.774 151.42 207.237 152.831 204.342 152.831C201.446 152.831 198.91 151.419 197.149 149.137C195.639 147.179 194.705 144.546 194.705 141.7C194.705 138.855 195.639 136.221 197.149 134.263C198.91 131.981 201.446 130.569 204.342 130.569ZM205.508 138.301C205.129 137.81 204.71 137.506 204.341 137.506C203.973 137.506 203.553 137.81 203.175 138.301C202.546 139.116 202.157 140.314 202.157 141.701C202.157 143.087 202.546 144.285 203.175 145.101C203.553 145.592 203.973 145.896 204.341 145.896C204.71 145.896 205.129 145.592 205.508 145.101C206.137 144.285 206.526 143.087 206.526 141.701C206.526 140.314 206.137 139.116 205.508 138.301ZM221.173 105.082C224.068 105.082 226.605 106.494 228.365 108.776C229.875 110.734 230.809 113.368 230.809 116.213C230.809 119.058 229.875 121.692 228.365 123.65C226.605 125.932 224.068 127.344 221.173 127.344C218.277 127.344 215.741 125.932 213.98 123.65C212.47 121.692 211.536 119.058 211.536 116.213C211.536 113.368 212.47 110.734 213.98 108.776C215.741 106.494 218.277 105.082 221.173 105.082ZM222.339 112.813C221.961 112.322 221.541 112.018 221.173 112.018C220.804 112.018 220.384 112.322 220.006 112.813C219.377 113.628 218.988 114.826 218.988 116.213C218.988 117.6 219.377 118.798 220.006 119.613C220.384 120.104 220.804 120.408 221.173 120.408C221.541 120.408 221.96 120.104 222.339 119.613C222.968 118.798 223.358 117.6 223.358 116.213C223.358 114.826 222.968 113.628 222.339 112.813ZM200.616 108.55C200.616 107.63 201.008 106.748 201.707 106.098C202.406 105.447 203.353 105.082 204.341 105.082C205.33 105.082 206.277 105.447 206.976 106.098C207.675 106.748 208.067 107.63 208.067 108.55V123.876C208.067 124.795 207.675 125.678 206.976 126.328C206.277 126.978 205.33 127.344 204.341 127.344C203.353 127.344 202.406 126.978 201.707 126.328C201.008 125.678 200.616 124.795 200.616 123.876V108.55ZM188.677 112.813C188.298 112.322 187.879 112.018 187.51 112.018C187.142 112.018 186.722 112.322 186.344 112.813C185.714 113.628 185.325 114.826 185.325 116.213C185.325 117.6 185.714 118.798 186.344 119.613C186.722 120.104 187.142 120.408 187.51 120.408C187.879 120.408 188.298 120.104 188.677 119.613C189.306 118.798 189.695 117.6 189.695 116.213C189.695 114.826 189.306 113.628 188.677 112.813Z" fill="#392B1C"/>
<path fill-rule="evenodd" clip-rule="evenodd" d="M60.3328 46.6784L67.023 57.4644L77.1825 73.8438C78.4323 75.8587 78.4323 78.1654 77.1825 80.1798C75.9328 82.1947 73.7866 83.3481 71.2871 83.3481H30.6484C28.1488 83.3481 26.0027 82.1947 24.7529 80.1798C23.5031 78.1649 23.5031 75.8587 24.7529 73.8438L34.9125 57.4644L41.6032 46.6784C42.228 45.6707 42.5149 44.6734 42.5149 43.5101V21.5021H59.4205V43.5106C59.4205 44.6734 59.708 45.6707 60.3328 46.6784Z" fill="#CD791E"/>
<path fill-rule="evenodd" clip-rule="evenodd" d="M42.0199 15.0908H59.9166C60.6548 15.0921 61.3623 15.3656 61.8842 15.8514C62.4062 16.3373 62.7 16.9958 62.7015 17.6829V22.9126C62.7 23.5997 62.4062 24.2582 61.8842 24.7441C61.3623 25.2299 60.6548 25.5034 59.9166 25.5047H42.0199C41.2818 25.5033 40.5744 25.2297 40.0524 24.7439C39.5305 24.2581 39.2366 23.5997 39.235 22.9126V17.6829C39.2363 16.9958 39.5301 16.3372 40.0521 15.8513C40.5741 15.3654 41.2817 15.092 42.0199 15.0908Z" fill="#CAD0D7"/>
<path fill-rule="evenodd" clip-rule="evenodd" d="M104.648 92.0592L121.351 107.606L116.083 112.51L99.3795 96.963L104.648 92.0592ZM164.018 36.7985L180.722 52.3456L175.453 57.2493L158.75 41.7023L164.018 36.7985ZM144.228 55.2186L138.96 60.1223L155.663 75.6694L160.932 70.7657L144.228 55.2186ZM131.825 62.0946L153.544 82.3102L148.276 87.2139L126.557 66.9984L131.825 62.0946ZM124.438 73.6391L119.169 78.5429L135.873 94.09L141.141 89.1862L124.438 73.6391Z" fill="#FDCD56"/>
<path fill-rule="evenodd" clip-rule="evenodd" d="M92.2449 103.839C91.5422 104.471 90.601 104.82 89.6241 104.812C88.6471 104.805 87.7126 104.44 87.0218 103.797C86.331 103.154 85.9391 102.284 85.9307 101.375C85.9222 100.465 86.2977 99.5894 86.9764 98.9353C90.3266 95.8171 94.4166 93.3885 99.1139 91.7724C103.59 90.2326 108.627 89.4478 114.102 89.5281L126.535 89.7114C126.961 89.7173 127.385 89.7173 127.805 89.7114C136.284 89.5865 143.339 86.9048 148.275 82.3097C153.212 77.7146 156.093 71.1486 156.228 63.2559C156.234 62.865 156.234 62.4707 156.228 62.0738L156.031 50.5016C155.944 45.4051 156.788 40.7174 158.442 36.5513C160.178 32.1791 162.787 28.3717 166.137 25.254C166.84 24.6223 167.781 24.2727 168.758 24.2806C169.735 24.2885 170.67 24.6533 171.361 25.2963C172.051 25.9393 172.443 26.8091 172.452 27.7184C172.46 28.6277 172.085 29.5037 171.406 30.1578C168.805 32.5789 166.777 35.5371 165.428 38.9358C164.073 42.3488 163.382 46.1983 163.454 50.3936L163.651 61.9658C163.659 62.4355 163.659 62.9022 163.651 63.3649C163.484 73.1477 159.822 81.3703 153.544 87.2139C147.266 93.0575 138.432 96.4661 127.921 96.6206C127.424 96.6281 126.923 96.6281 126.418 96.6206L113.985 96.4373C109.478 96.3709 105.342 97.014 101.675 98.2749C98.0243 99.5308 94.8461 101.417 92.2449 103.839Z" fill="#F76C82"/>
<path fill-rule="evenodd" clip-rule="evenodd" d="M113.964 124.055C113.261 124.686 112.32 125.036 111.343 125.028C110.366 125.02 109.432 124.655 108.741 124.012C108.05 123.369 107.658 122.499 107.65 121.59C107.641 120.681 108.017 119.805 108.695 119.151C113.874 114.33 116.791 107.338 116.648 98.915L116.451 87.3427C116.443 86.8764 116.443 86.41 116.451 85.9436C116.617 76.1609 120.279 67.9382 126.557 62.0946C132.836 56.251 141.669 52.8425 152.18 52.6879C152.681 52.6805 153.182 52.6805 153.683 52.6879L166.116 52.8712C170.623 52.9376 174.759 52.2945 178.426 51.0337C182.077 49.7778 185.256 47.8912 187.857 45.4695C188.56 44.8378 189.501 44.4882 190.478 44.4961C191.455 44.504 192.389 44.8688 193.08 45.5118C193.771 46.1548 194.163 47.0246 194.171 47.9339C194.18 48.8432 193.804 49.7192 193.125 50.3733C189.775 53.4915 185.685 55.9201 180.987 57.5362C176.511 59.076 171.475 59.8612 166 59.7805L153.567 59.5972C153.143 59.5912 152.72 59.5912 152.297 59.5972C143.817 59.722 136.763 62.4038 131.826 66.9989C126.889 71.594 124.008 78.1599 123.874 86.0526C123.867 86.4466 123.867 86.8407 123.874 87.2347L124.071 98.807C124.247 109.203 120.541 117.933 113.964 124.055Z" fill="#147D98"/>
<path fill-rule="evenodd" clip-rule="evenodd" d="M156.229 63.199C156.234 62.8269 156.234 62.4519 156.228 62.0743L156.031 50.5021L156.03 50.4124H163.454L163.651 61.9663C163.658 62.3795 163.659 62.7907 163.654 63.1995L156.229 63.199Z" fill="#F76C82"/>
</g>
<defs>
<clipPath id="clip0_601_9">
<rect width="266" height="233" fill="white"/>
</clipPath>
</defs>
</svg>
